<mxfile host="app.diagrams.net" agent="Mozilla/5.0 (Windows NT 10.0; Win64; x64) AppleWebKit/537.36 (KHTML, like Gecko) Chrome/138.0.0.0 Safari/537.36" version="28.0.6">
  <diagram name="Page-1" id="z7cECtmw6dsVeSc0IOON">
    <mxGraphModel grid="1" page="1" gridSize="10" guides="1" tooltips="1" connect="1" arrows="1" fold="1" pageScale="1" pageWidth="850" pageHeight="1300" math="0" shadow="0">
      <root>
        <mxCell id="0" />
        <mxCell id="1" parent="0" />
        <mxCell id="wmBod1WYh6RmsWNk_uDL-5" value="" style="edgeStyle=orthogonalEdgeStyle;rounded=0;orthogonalLoop=1;jettySize=auto;html=1;exitX=0.5;exitY=1;exitDx=0;exitDy=0;" edge="1" parent="1" source="wmBod1WYh6RmsWNk_uDL-1" target="wmBod1WYh6RmsWNk_uDL-4">
          <mxGeometry relative="1" as="geometry">
            <mxPoint x="400" y="95" as="sourcePoint" />
          </mxGeometry>
        </mxCell>
        <mxCell id="wmBod1WYh6RmsWNk_uDL-1" value="IDLE_STATE&lt;br&gt;ready &amp;lt;= 1&lt;div&gt;index &amp;lt;= 0&lt;/div&gt;&lt;div&gt;PC &amp;lt;= 0&lt;/div&gt;&lt;div&gt;p &amp;lt;= 0&lt;/div&gt;" style="rounded=0;whiteSpace=wrap;html=1;fontSize=15;" vertex="1" parent="1">
          <mxGeometry x="280" y="30" width="240" height="110" as="geometry" />
        </mxCell>
        <mxCell id="wmBod1WYh6RmsWNk_uDL-2" value="PC = parity_counter&lt;div&gt;PF= partiy_flag&lt;br&gt;&lt;div&gt;p =parity&lt;br&gt;&lt;div&gt;&lt;br&gt;&lt;/div&gt;&lt;/div&gt;&lt;/div&gt;" style="text;html=1;align=center;verticalAlign=middle;whiteSpace=wrap;rounded=0;" vertex="1" parent="1">
          <mxGeometry x="650" y="20" width="130" height="70" as="geometry" />
        </mxCell>
        <mxCell id="wmBod1WYh6RmsWNk_uDL-6" style="edgeStyle=orthogonalEdgeStyle;rounded=0;orthogonalLoop=1;jettySize=auto;html=1;exitX=0;exitY=0.5;exitDx=0;exitDy=0;entryX=0;entryY=0.5;entryDx=0;entryDy=0;" edge="1" parent="1" source="wmBod1WYh6RmsWNk_uDL-4" target="wmBod1WYh6RmsWNk_uDL-1">
          <mxGeometry relative="1" as="geometry">
            <mxPoint x="280.0000000000002" y="40" as="targetPoint" />
            <Array as="points">
              <mxPoint x="220" y="218" />
              <mxPoint x="220" y="85" />
            </Array>
          </mxGeometry>
        </mxCell>
        <mxCell id="wmBod1WYh6RmsWNk_uDL-9" value="" style="edgeStyle=orthogonalEdgeStyle;rounded=0;orthogonalLoop=1;jettySize=auto;html=1;" edge="1" parent="1" target="wmBod1WYh6RmsWNk_uDL-8">
          <mxGeometry relative="1" as="geometry">
            <mxPoint x="400" y="275" as="sourcePoint" />
          </mxGeometry>
        </mxCell>
        <mxCell id="wmBod1WYh6RmsWNk_uDL-4" value="valid ==1" style="rhombus;whiteSpace=wrap;html=1;fontSize=15;rounded=0;" vertex="1" parent="1">
          <mxGeometry x="337.5" y="155.5" width="125" height="125" as="geometry" />
        </mxCell>
        <mxCell id="wmBod1WYh6RmsWNk_uDL-7" value="False" style="text;html=1;align=center;verticalAlign=middle;resizable=0;points=[];autosize=1;strokeColor=none;fillColor=none;" vertex="1" parent="1">
          <mxGeometry x="265" y="180" width="50" height="30" as="geometry" />
        </mxCell>
        <mxCell id="wmBod1WYh6RmsWNk_uDL-11" value="" style="edgeStyle=orthogonalEdgeStyle;rounded=0;orthogonalLoop=1;jettySize=auto;html=1;" edge="1" parent="1" source="wmBod1WYh6RmsWNk_uDL-8" target="wmBod1WYh6RmsWNk_uDL-10">
          <mxGeometry relative="1" as="geometry" />
        </mxCell>
        <mxCell id="wmBod1WYh6RmsWNk_uDL-8" value="START_STATE&lt;div&gt;&lt;span style=&quot;background-color: transparent; color: light-dark(rgb(0, 0, 0), rgb(255, 255, 255));&quot;&gt;Tx &amp;lt;= 0&lt;/span&gt;&lt;/div&gt;" style="whiteSpace=wrap;html=1;fontSize=15;rounded=0;" vertex="1" parent="1">
          <mxGeometry x="280" y="340" width="240" height="50" as="geometry" />
        </mxCell>
        <mxCell id="wmBod1WYh6RmsWNk_uDL-13" value="" style="edgeStyle=orthogonalEdgeStyle;rounded=0;orthogonalLoop=1;jettySize=auto;html=1;" edge="1" parent="1" source="wmBod1WYh6RmsWNk_uDL-10" target="wmBod1WYh6RmsWNk_uDL-12">
          <mxGeometry relative="1" as="geometry" />
        </mxCell>
        <mxCell id="wmBod1WYh6RmsWNk_uDL-10" value="DATA_STATE" style="whiteSpace=wrap;html=1;fontSize=15;rounded=0;" vertex="1" parent="1">
          <mxGeometry x="280" y="410" width="240" height="70" as="geometry" />
        </mxCell>
        <mxCell id="wmBod1WYh6RmsWNk_uDL-17" value="" style="edgeStyle=orthogonalEdgeStyle;rounded=0;orthogonalLoop=1;jettySize=auto;html=1;entryX=0.5;entryY=0;entryDx=0;entryDy=0;" edge="1" parent="1" source="wmBod1WYh6RmsWNk_uDL-12" target="wmBod1WYh6RmsWNk_uDL-16">
          <mxGeometry relative="1" as="geometry">
            <mxPoint x="595" y="640" as="targetPoint" />
          </mxGeometry>
        </mxCell>
        <mxCell id="wmBod1WYh6RmsWNk_uDL-56" style="edgeStyle=orthogonalEdgeStyle;rounded=0;orthogonalLoop=1;jettySize=auto;html=1;exitX=0;exitY=0.5;exitDx=0;exitDy=0;entryX=0.5;entryY=0;entryDx=0;entryDy=0;" edge="1" parent="1" source="wmBod1WYh6RmsWNk_uDL-12" target="wmBod1WYh6RmsWNk_uDL-55">
          <mxGeometry relative="1" as="geometry" />
        </mxCell>
        <mxCell id="wmBod1WYh6RmsWNk_uDL-12" value="PC == 8" style="rhombus;whiteSpace=wrap;html=1;fontSize=15;rounded=0;" vertex="1" parent="1">
          <mxGeometry x="340" y="500" width="120" height="120" as="geometry" />
        </mxCell>
        <mxCell id="wmBod1WYh6RmsWNk_uDL-15" value="False" style="text;html=1;align=center;verticalAlign=middle;resizable=0;points=[];autosize=1;strokeColor=none;fillColor=none;" vertex="1" parent="1">
          <mxGeometry x="280" y="530" width="50" height="30" as="geometry" />
        </mxCell>
        <mxCell id="wmBod1WYh6RmsWNk_uDL-27" value="" style="edgeStyle=orthogonalEdgeStyle;rounded=0;orthogonalLoop=1;jettySize=auto;html=1;entryX=0.5;entryY=0;entryDx=0;entryDy=0;exitX=0;exitY=0.5;exitDx=0;exitDy=0;" edge="1" parent="1" source="wmBod1WYh6RmsWNk_uDL-16" target="wmBod1WYh6RmsWNk_uDL-26">
          <mxGeometry relative="1" as="geometry">
            <Array as="points">
              <mxPoint x="395" y="730" />
            </Array>
          </mxGeometry>
        </mxCell>
        <mxCell id="wmBod1WYh6RmsWNk_uDL-72" style="edgeStyle=orthogonalEdgeStyle;rounded=0;orthogonalLoop=1;jettySize=auto;html=1;exitX=1;exitY=0.5;exitDx=0;exitDy=0;entryX=0.5;entryY=0;entryDx=0;entryDy=0;" edge="1" parent="1" source="wmBod1WYh6RmsWNk_uDL-16" target="wmBod1WYh6RmsWNk_uDL-67">
          <mxGeometry relative="1" as="geometry" />
        </mxCell>
        <mxCell id="wmBod1WYh6RmsWNk_uDL-16" value="PF&amp;nbsp;&lt;span style=&quot;background-color: transparent; color: light-dark(rgb(0, 0, 0), rgb(255, 255, 255));&quot;&gt;&amp;amp;&amp;amp;&lt;/span&gt;&lt;div&gt;width &amp;gt; 8&lt;/div&gt;&lt;div&gt;&amp;amp;&amp;amp;&lt;/div&gt;&lt;div&gt;index &amp;lt; width&lt;/div&gt;" style="rhombus;whiteSpace=wrap;html=1;fontSize=15;rounded=0;" vertex="1" parent="1">
          <mxGeometry x="520" y="650" width="160" height="160" as="geometry" />
        </mxCell>
        <mxCell id="wmBod1WYh6RmsWNk_uDL-18" value="True" style="text;html=1;align=center;verticalAlign=middle;resizable=0;points=[];autosize=1;strokeColor=none;fillColor=none;" vertex="1" parent="1">
          <mxGeometry x="455" y="530" width="50" height="30" as="geometry" />
        </mxCell>
        <mxCell id="wmBod1WYh6RmsWNk_uDL-24" value="True" style="text;html=1;align=center;verticalAlign=middle;resizable=0;points=[];autosize=1;strokeColor=none;fillColor=none;" vertex="1" parent="1">
          <mxGeometry x="670" y="700" width="50" height="30" as="geometry" />
        </mxCell>
        <mxCell id="wmBod1WYh6RmsWNk_uDL-32" style="edgeStyle=orthogonalEdgeStyle;rounded=0;orthogonalLoop=1;jettySize=auto;html=1;entryX=0;entryY=0.5;entryDx=0;entryDy=0;exitX=0;exitY=0.5;exitDx=0;exitDy=0;" edge="1" parent="1" source="5-cfP3lDTUgJ2YtXuN8T-2" target="wmBod1WYh6RmsWNk_uDL-10">
          <mxGeometry relative="1" as="geometry">
            <mxPoint x="240" y="460" as="targetPoint" />
            <Array as="points">
              <mxPoint x="150" y="798" />
              <mxPoint x="120" y="798" />
              <mxPoint x="120" y="445" />
            </Array>
            <mxPoint x="150" y="780" as="sourcePoint" />
          </mxGeometry>
        </mxCell>
        <mxCell id="wmBod1WYh6RmsWNk_uDL-38" value="" style="edgeStyle=orthogonalEdgeStyle;rounded=0;orthogonalLoop=1;jettySize=auto;html=1;" edge="1" parent="1" source="wmBod1WYh6RmsWNk_uDL-26" target="wmBod1WYh6RmsWNk_uDL-37">
          <mxGeometry relative="1" as="geometry" />
        </mxCell>
        <mxCell id="wmBod1WYh6RmsWNk_uDL-65" style="edgeStyle=orthogonalEdgeStyle;rounded=0;orthogonalLoop=1;jettySize=auto;html=1;exitX=0;exitY=0.5;exitDx=0;exitDy=0;entryX=1;entryY=0.5;entryDx=0;entryDy=0;" edge="1" parent="1" source="wmBod1WYh6RmsWNk_uDL-26" target="wmBod1WYh6RmsWNk_uDL-55">
          <mxGeometry relative="1" as="geometry" />
        </mxCell>
        <mxCell id="wmBod1WYh6RmsWNk_uDL-26" value="index &amp;lt; width" style="rhombus;whiteSpace=wrap;html=1;fontSize=15;rounded=0;" vertex="1" parent="1">
          <mxGeometry x="335" y="780" width="120" height="120" as="geometry" />
        </mxCell>
        <mxCell id="wmBod1WYh6RmsWNk_uDL-28" value="False" style="text;html=1;align=center;verticalAlign=middle;resizable=0;points=[];autosize=1;strokeColor=none;fillColor=none;" vertex="1" parent="1">
          <mxGeometry x="470" y="700" width="50" height="30" as="geometry" />
        </mxCell>
        <mxCell id="wmBod1WYh6RmsWNk_uDL-33" value="True" style="text;html=1;align=center;verticalAlign=middle;resizable=0;points=[];autosize=1;strokeColor=none;fillColor=none;" vertex="1" parent="1">
          <mxGeometry x="315" y="765" width="50" height="30" as="geometry" />
        </mxCell>
        <mxCell id="wmBod1WYh6RmsWNk_uDL-36" value="False" style="text;html=1;align=center;verticalAlign=middle;resizable=0;points=[];autosize=1;strokeColor=none;fillColor=none;" vertex="1" parent="1">
          <mxGeometry x="400" y="890" width="50" height="30" as="geometry" />
        </mxCell>
        <mxCell id="wmBod1WYh6RmsWNk_uDL-40" value="" style="edgeStyle=orthogonalEdgeStyle;rounded=0;orthogonalLoop=1;jettySize=auto;html=1;entryX=0.5;entryY=0;entryDx=0;entryDy=0;" edge="1" parent="1" source="wmBod1WYh6RmsWNk_uDL-37" target="wmBod1WYh6RmsWNk_uDL-39">
          <mxGeometry relative="1" as="geometry" />
        </mxCell>
        <mxCell id="wmBod1WYh6RmsWNk_uDL-62" style="edgeStyle=orthogonalEdgeStyle;rounded=0;orthogonalLoop=1;jettySize=auto;html=1;exitX=0.5;exitY=1;exitDx=0;exitDy=0;entryX=0.5;entryY=0;entryDx=0;entryDy=0;" edge="1" parent="1" source="wmBod1WYh6RmsWNk_uDL-37" target="wmBod1WYh6RmsWNk_uDL-41">
          <mxGeometry relative="1" as="geometry" />
        </mxCell>
        <mxCell id="wmBod1WYh6RmsWNk_uDL-37" value="err == 1" style="rhombus;whiteSpace=wrap;html=1;fontSize=15;rounded=0;" vertex="1" parent="1">
          <mxGeometry x="335" y="920" width="120" height="120" as="geometry" />
        </mxCell>
        <mxCell id="wmBod1WYh6RmsWNk_uDL-63" style="edgeStyle=orthogonalEdgeStyle;rounded=0;orthogonalLoop=1;jettySize=auto;html=1;entryX=0.5;entryY=0;entryDx=0;entryDy=0;" edge="1" parent="1" source="wmBod1WYh6RmsWNk_uDL-39" target="wmBod1WYh6RmsWNk_uDL-41">
          <mxGeometry relative="1" as="geometry">
            <Array as="points">
              <mxPoint x="270" y="1100" />
              <mxPoint x="395" y="1100" />
            </Array>
          </mxGeometry>
        </mxCell>
        <mxCell id="wmBod1WYh6RmsWNk_uDL-39" value="p = ~p" style="whiteSpace=wrap;html=1;fontSize=15;rounded=1;" vertex="1" parent="1">
          <mxGeometry x="210" y="1020" width="120" height="40" as="geometry" />
        </mxCell>
        <mxCell id="wmBod1WYh6RmsWNk_uDL-64" style="edgeStyle=orthogonalEdgeStyle;rounded=0;orthogonalLoop=1;jettySize=auto;html=1;exitX=0.5;exitY=1;exitDx=0;exitDy=0;entryX=0.5;entryY=0;entryDx=0;entryDy=0;" edge="1" parent="1" source="wmBod1WYh6RmsWNk_uDL-41" target="wmBod1WYh6RmsWNk_uDL-45">
          <mxGeometry relative="1" as="geometry" />
        </mxCell>
        <mxCell id="wmBod1WYh6RmsWNk_uDL-41" value="Tx = p" style="whiteSpace=wrap;html=1;fontSize=15;rounded=1;" vertex="1" parent="1">
          <mxGeometry x="335" y="1130" width="120" height="40" as="geometry" />
        </mxCell>
        <mxCell id="wmBod1WYh6RmsWNk_uDL-44" style="edgeStyle=orthogonalEdgeStyle;rounded=0;orthogonalLoop=1;jettySize=auto;html=1;exitX=0.5;exitY=1;exitDx=0;exitDy=0;" edge="1" parent="1" source="wmBod1WYh6RmsWNk_uDL-41" target="wmBod1WYh6RmsWNk_uDL-41">
          <mxGeometry relative="1" as="geometry" />
        </mxCell>
        <mxCell id="wmBod1WYh6RmsWNk_uDL-47" style="edgeStyle=orthogonalEdgeStyle;rounded=0;orthogonalLoop=1;jettySize=auto;html=1;entryX=0;entryY=0.5;entryDx=0;entryDy=0;" edge="1" parent="1" source="wmBod1WYh6RmsWNk_uDL-45" target="wmBod1WYh6RmsWNk_uDL-1">
          <mxGeometry relative="1" as="geometry">
            <Array as="points">
              <mxPoint x="90" y="1230" />
              <mxPoint x="90" y="85" />
            </Array>
          </mxGeometry>
        </mxCell>
        <mxCell id="wmBod1WYh6RmsWNk_uDL-45" value="Stop_State&lt;div&gt;Tx &amp;lt;= 1&lt;/div&gt;&lt;div&gt;ready = 1&lt;/div&gt;" style="whiteSpace=wrap;html=1;fontSize=15;rounded=0;" vertex="1" parent="1">
          <mxGeometry x="310" y="1200" width="160" height="60" as="geometry" />
        </mxCell>
        <mxCell id="wmBod1WYh6RmsWNk_uDL-48" value="True" style="text;html=1;align=center;verticalAlign=middle;resizable=0;points=[];autosize=1;strokeColor=none;fillColor=none;" vertex="1" parent="1">
          <mxGeometry x="280" y="950" width="50" height="30" as="geometry" />
        </mxCell>
        <mxCell id="wmBod1WYh6RmsWNk_uDL-49" value="False" style="text;html=1;align=center;verticalAlign=middle;resizable=0;points=[];autosize=1;strokeColor=none;fillColor=none;" vertex="1" parent="1">
          <mxGeometry x="405" y="1050" width="50" height="30" as="geometry" />
        </mxCell>
        <mxCell id="wmBod1WYh6RmsWNk_uDL-50" value="&lt;b&gt;&lt;font style=&quot;color: rgb(255, 16, 16); font-size: 23px;&quot;&gt;TX&lt;/font&gt;&lt;/b&gt;" style="text;html=1;align=center;verticalAlign=middle;whiteSpace=wrap;rounded=0;" vertex="1" parent="1">
          <mxGeometry x="590" y="20" width="60" height="30" as="geometry" />
        </mxCell>
        <mxCell id="5-cfP3lDTUgJ2YtXuN8T-3" style="edgeStyle=orthogonalEdgeStyle;rounded=0;orthogonalLoop=1;jettySize=auto;html=1;exitX=0.5;exitY=1;exitDx=0;exitDy=0;entryX=0.5;entryY=0;entryDx=0;entryDy=0;" edge="1" parent="1" source="wmBod1WYh6RmsWNk_uDL-55" target="5-cfP3lDTUgJ2YtXuN8T-2">
          <mxGeometry relative="1" as="geometry" />
        </mxCell>
        <mxCell id="wmBod1WYh6RmsWNk_uDL-55" value="&lt;div style=&quot;font-size: 15px;&quot;&gt;Tx = input [ index ]&lt;/div&gt;&lt;div style=&quot;font-size: 15px;&quot;&gt;p = p ^ input [ index ]&lt;/div&gt;&lt;div style=&quot;font-size: 15px;&quot;&gt;index++&lt;/div&gt;" style="whiteSpace=wrap;html=1;rounded=1;" vertex="1" parent="1">
          <mxGeometry x="140" y="640" width="190" height="70" as="geometry" />
        </mxCell>
        <mxCell id="wmBod1WYh6RmsWNk_uDL-59" value="&lt;div&gt;PC = 0&lt;/div&gt;" style="whiteSpace=wrap;html=1;fontSize=15;rounded=1;arcSize=23;" vertex="1" parent="1">
          <mxGeometry x="525" y="580" width="120" height="30" as="geometry" />
        </mxCell>
        <mxCell id="wmBod1WYh6RmsWNk_uDL-66" value="" style="edgeStyle=orthogonalEdgeStyle;rounded=0;orthogonalLoop=1;jettySize=auto;html=1;entryX=0.5;entryY=0;entryDx=0;entryDy=0;" edge="1" parent="1" source="wmBod1WYh6RmsWNk_uDL-67" target="wmBod1WYh6RmsWNk_uDL-69">
          <mxGeometry relative="1" as="geometry" />
        </mxCell>
        <mxCell id="wmBod1WYh6RmsWNk_uDL-73" style="edgeStyle=orthogonalEdgeStyle;rounded=0;orthogonalLoop=1;jettySize=auto;html=1;exitX=0.5;exitY=1;exitDx=0;exitDy=0;entryX=0.5;entryY=0;entryDx=0;entryDy=0;" edge="1" parent="1" source="wmBod1WYh6RmsWNk_uDL-67" target="wmBod1WYh6RmsWNk_uDL-71">
          <mxGeometry relative="1" as="geometry" />
        </mxCell>
        <mxCell id="wmBod1WYh6RmsWNk_uDL-67" value="err == 1" style="rhombus;whiteSpace=wrap;html=1;fontSize=15;rounded=0;" vertex="1" parent="1">
          <mxGeometry x="645" y="810" width="120" height="120" as="geometry" />
        </mxCell>
        <mxCell id="wmBod1WYh6RmsWNk_uDL-68" style="edgeStyle=orthogonalEdgeStyle;rounded=0;orthogonalLoop=1;jettySize=auto;html=1;entryX=0.5;entryY=0;entryDx=0;entryDy=0;" edge="1" parent="1" source="wmBod1WYh6RmsWNk_uDL-69">
          <mxGeometry relative="1" as="geometry">
            <mxPoint x="705" y="1020" as="targetPoint" />
            <Array as="points">
              <mxPoint x="580" y="990" />
              <mxPoint x="705" y="990" />
            </Array>
          </mxGeometry>
        </mxCell>
        <mxCell id="wmBod1WYh6RmsWNk_uDL-69" value="p = ~p" style="whiteSpace=wrap;html=1;fontSize=15;rounded=1;" vertex="1" parent="1">
          <mxGeometry x="520" y="910" width="120" height="40" as="geometry" />
        </mxCell>
        <mxCell id="wmBod1WYh6RmsWNk_uDL-70" value="True" style="text;html=1;align=center;verticalAlign=middle;resizable=0;points=[];autosize=1;strokeColor=none;fillColor=none;" vertex="1" parent="1">
          <mxGeometry x="590" y="840" width="50" height="30" as="geometry" />
        </mxCell>
        <mxCell id="wmBod1WYh6RmsWNk_uDL-74" style="edgeStyle=orthogonalEdgeStyle;rounded=0;orthogonalLoop=1;jettySize=auto;html=1;exitX=1;exitY=0.5;exitDx=0;exitDy=0;entryX=1;entryY=0.5;entryDx=0;entryDy=0;" edge="1" parent="1" source="wmBod1WYh6RmsWNk_uDL-71" target="wmBod1WYh6RmsWNk_uDL-10">
          <mxGeometry relative="1" as="geometry">
            <mxPoint x="810" y="590" as="targetPoint" />
          </mxGeometry>
        </mxCell>
        <mxCell id="wmBod1WYh6RmsWNk_uDL-71" value="Tx = p&lt;div&gt;&lt;span style=&quot;background-color: transparent; color: light-dark(rgb(0, 0, 0), rgb(255, 255, 255));&quot;&gt;p = 0&lt;/span&gt;&lt;/div&gt;" style="whiteSpace=wrap;html=1;fontSize=15;rounded=1;arcSize=23;" vertex="1" parent="1">
          <mxGeometry x="645" y="1020" width="120" height="50" as="geometry" />
        </mxCell>
        <mxCell id="5-cfP3lDTUgJ2YtXuN8T-1" value="&lt;div&gt;ready = 0&lt;/div&gt;" style="whiteSpace=wrap;html=1;fontSize=15;rounded=1;arcSize=23;" vertex="1" parent="1">
          <mxGeometry x="340" y="295" width="120" height="30" as="geometry" />
        </mxCell>
        <mxCell id="5-cfP3lDTUgJ2YtXuN8T-6" style="edgeStyle=orthogonalEdgeStyle;rounded=0;orthogonalLoop=1;jettySize=auto;html=1;exitX=0.5;exitY=1;exitDx=0;exitDy=0;entryX=0.5;entryY=0;entryDx=0;entryDy=0;" edge="1" parent="1" source="5-cfP3lDTUgJ2YtXuN8T-2" target="5-cfP3lDTUgJ2YtXuN8T-5">
          <mxGeometry relative="1" as="geometry" />
        </mxCell>
        <mxCell id="5-cfP3lDTUgJ2YtXuN8T-2" value="PC != 8" style="rhombus;whiteSpace=wrap;html=1;fontSize=15;rounded=0;" vertex="1" parent="1">
          <mxGeometry x="192.5" y="755" width="85" height="85" as="geometry" />
        </mxCell>
        <mxCell id="5-cfP3lDTUgJ2YtXuN8T-7" style="edgeStyle=orthogonalEdgeStyle;rounded=0;orthogonalLoop=1;jettySize=auto;html=1;entryX=0;entryY=0.5;entryDx=0;entryDy=0;" edge="1" parent="1" source="5-cfP3lDTUgJ2YtXuN8T-5" target="wmBod1WYh6RmsWNk_uDL-10">
          <mxGeometry relative="1" as="geometry">
            <mxPoint x="110" y="300" as="targetPoint" />
            <Array as="points">
              <mxPoint x="120" y="885" />
              <mxPoint x="120" y="445" />
            </Array>
          </mxGeometry>
        </mxCell>
        <mxCell id="5-cfP3lDTUgJ2YtXuN8T-5" value="PC++" style="whiteSpace=wrap;html=1;fontSize=15;rounded=1;arcSize=23;" vertex="1" parent="1">
          <mxGeometry x="172.5" y="870" width="120" height="30" as="geometry" />
        </mxCell>
        <mxCell id="5-cfP3lDTUgJ2YtXuN8T-10" value="True" style="text;html=1;align=center;verticalAlign=middle;resizable=0;points=[];autosize=1;strokeColor=none;fillColor=none;" vertex="1" parent="1">
          <mxGeometry x="172.5" y="840" width="50" height="30" as="geometry" />
        </mxCell>
        <mxCell id="5-cfP3lDTUgJ2YtXuN8T-11" value="False" style="text;html=1;align=center;verticalAlign=middle;resizable=0;points=[];autosize=1;strokeColor=none;fillColor=none;" vertex="1" parent="1">
          <mxGeometry x="142.5" y="765" width="50" height="30" as="geometry" />
        </mxCell>
      </root>
    </mxGraphModel>
  </diagram>
</mxfile>
